# xmcd
#
# Track frame offsets: 
#        150
#        19284
#        41109
#        63616
#        88377
#        109115
#        126177
#        155025
#        165662
#        192475
#        206550
#        227850
#        247198
#        269249
#        281389
#
# Disc length: 4096 seconds
#
# Revision: 2
# Processed by: cddbd v1.5.2PL0 Copyright (c) Steve Scherf et al.
# Submitted via: ExactAudioCopy v0.95b4
#
DISCID=ef0ffe0f
DTITLE=Various Artist - Box of the Blues, disc 2
DYEAR=2003
DGENRE=Blues
TTITLE0=Clarence Gatemouth Brown - One More Mile
TTITLE1=Carrey Bell with the Bob Reidy Chicago Blues Band - My Eyes Ke
TTITLE1=ep Me In Trouble
TTITLE2=Champion Jack Dupree - Give Me Flowers While I'm Living
TTITLE3=Eddie the Chief Clearwater - Cool Blues Walk
TTITLE4=Phillip Walker - Port Arthur Blues
TTITLE5=Jonny Copeland - Nobody But You
TTITLE6=Willie Cobbs - Junkin
TTITLE7=Johnny Young with the Bob Reidy Chicago Blues Band - Johnny's 
TTITLE7=Jump
TTITLE8=Larry Davis - Going Out West Part 1 and Part 2
TTITLE9=Jimmy Rogers and the Bob Reidy Chicago Blues Band - Walking By M
TTITLE9=yself
TTITLE10=Lowell Fulson - Blues And My Guitar
TTITLE11=J. B. Hutto and the New Hawks - Eighteen Year Old Girl
TTITLE12=Luther Guitar Johnson Jr. and the Magic Rockers - I'm From Mi
TTITLE12=ssissippi
TTITLE13=Lonesome Sundown - This Is The Blues
TTITLE14=Smokey Wilson - The Man From Mars
EXTD=YEAR: 2003
EXTT0=
EXTT1=
EXTT2=
EXTT3=
EXTT4=
EXTT5=
EXTT6=
EXTT7=
EXTT8=
EXTT9=
EXTT10=
EXTT11=
EXTT12=
EXTT13=
EXTT14=
PLAYORDER=
